# xmcd
#
# Track frame offsets: 
#        150
#        28075
#        47430
#        69913
#        88643
#        125611
#        165055
#        167393
#        196157
#        214799
#        236548
#
# Disc length: 3495 seconds
#
# Revision: 0
# Processed by: cddbd v1.5.1PL2 Copyright (c) Steve Scherf et al.
# Submitted via: ExactAudioCopy v0.95a4
#
DISCID=7f0da50b
DTITLE=Rolf Wikström - Live 2005
DYEAR=2006
DGENRE=Blues
TTITLE0=Bluesen läker alla sår
TTITLE1=Inte en spänn på fickan
TTITLE2=Lyckan kommer, lyckan går
TTITLE3=Du säger du ska lämna mig
TTITLE4=Vi ska bygga upp en kyrka
TTITLE5=Kom till mig kvinna
TTITLE6=Intro till
TTITLE7=Allt för många gånger
TTITLE8=Du kramar musten ur mig
TTITLE9=Jag tror du ljuger
TTITLE10=Jävla måndag
EXTD=
EXTT0=
EXTT1=
EXTT2=
EXTT3=
EXTT4=
EXTT5=
EXTT6=
EXTT7=
EXTT8=
EXTT9=
EXTT10=
PLAYORDER=
